<?xml version="1.0" encoding="utf-8"?>
<!-- Generator: Adobe Illustrator 23.0.1, SVG Export Plug-In . SVG Version: 6.00 Build 0)  -->
<svg version="1.1" id="Layer_1" xmlns="http://www.w3.org/2000/svg" xmlns:xlink="http://www.w3.org/1999/xlink" x="0px" y="0px"
	 viewBox="0 0 250 37" style="enable-background:new 0 0 250 37;" xml:space="preserve">
<style type="text/css">
	.st0{fill:none;stroke:#222222;stroke-width:2;}
	.st1{fill:#222222;}
	.st2{fill:#AF9A7D;}
</style>
<rect x="1" y="1" class="st0" width="248" height="35"/>
<g>
	<path class="st1" d="M23.3,25.2c0.6,0,1-0.1,1.4-0.2c0.4-0.1,0.7-0.3,0.9-0.6c0.2-0.2,0.4-0.5,0.5-0.8c0.1-0.3,0.1-0.6,0.1-0.9
		c0-0.4-0.1-0.7-0.2-0.9c-0.1-0.3-0.3-0.5-0.5-0.7c-0.2-0.2-0.5-0.4-0.9-0.5c-0.4-0.1-0.8-0.2-1.4-0.2h-3.1v4.8H23.3z M20.2,13.3V18
		h2.4c0.5,0,1,0,1.3-0.1c0.4-0.1,0.7-0.2,1-0.4s0.5-0.4,0.6-0.7c0.1-0.3,0.2-0.7,0.2-1.1c0-0.4-0.1-0.8-0.2-1.1
		c-0.1-0.3-0.3-0.5-0.5-0.7s-0.5-0.3-0.9-0.4c-0.4-0.1-0.8-0.1-1.3-0.1H20.2z M22.8,10.6c1.2,0,2.2,0.1,3,0.3c0.8,0.2,1.5,0.5,2,0.9
		c0.5,0.4,0.9,0.9,1.2,1.5c0.2,0.6,0.4,1.2,0.4,1.9c0,0.4-0.1,0.8-0.2,1.2c-0.1,0.4-0.3,0.7-0.5,1c-0.2,0.3-0.6,0.6-0.9,0.9
		c-0.4,0.3-0.8,0.5-1.4,0.7c1.2,0.3,2.1,0.7,2.6,1.4c0.6,0.6,0.9,1.5,0.9,2.5c0,0.7-0.1,1.4-0.4,2.1c-0.3,0.6-0.7,1.2-1.2,1.6
		c-0.5,0.5-1.2,0.8-2,1.1c-0.8,0.3-1.7,0.4-2.7,0.4h-6.7V10.6H22.8z M46.9,20.4c0-0.3,0-0.7-0.1-1c-0.1-0.3-0.2-0.6-0.4-0.8
		c-0.2-0.2-0.5-0.4-0.8-0.6c-0.3-0.1-0.7-0.2-1.1-0.2c-0.8,0-1.4,0.2-1.9,0.7c-0.4,0.4-0.7,1.1-0.9,1.9H46.9z M41.7,22.3
		c0.1,1.2,0.4,2,1,2.5c0.6,0.5,1.3,0.8,2.2,0.8c0.5,0,0.8-0.1,1.2-0.2c0.3-0.1,0.6-0.2,0.9-0.4c0.3-0.1,0.5-0.3,0.7-0.4
		c0.2-0.1,0.4-0.2,0.6-0.2c0.3,0,0.5,0.1,0.6,0.3l1,1.2c-0.4,0.4-0.7,0.7-1.2,1c-0.4,0.3-0.9,0.5-1.3,0.6c-0.5,0.2-0.9,0.3-1.4,0.3
		c-0.5,0.1-0.9,0.1-1.3,0.1c-0.9,0-1.7-0.1-2.4-0.4c-0.7-0.3-1.4-0.7-2-1.3c-0.6-0.6-1-1.3-1.3-2.1c-0.3-0.8-0.5-1.8-0.5-2.9
		c0-0.8,0.1-1.6,0.4-2.4c0.3-0.7,0.7-1.4,1.2-1.9s1.2-1,1.9-1.3c0.7-0.3,1.6-0.5,2.5-0.5c0.8,0,1.5,0.1,2.2,0.4
		c0.7,0.2,1.2,0.6,1.7,1.1c0.5,0.5,0.9,1.1,1.1,1.8c0.3,0.7,0.4,1.5,0.4,2.4c0,0.2,0,0.5,0,0.6c0,0.2-0.1,0.3-0.1,0.4
		c-0.1,0.1-0.1,0.2-0.2,0.2c-0.1,0-0.2,0-0.4,0H41.7z M65.6,22.8c-0.8,0-1.5,0.1-2,0.2c-0.5,0.1-1,0.2-1.3,0.4
		c-0.3,0.2-0.5,0.3-0.7,0.6c-0.1,0.2-0.2,0.4-0.2,0.7c0,0.5,0.1,0.8,0.4,1c0.3,0.2,0.6,0.3,1.1,0.3c0.6,0,1-0.1,1.4-0.3
		c0.4-0.2,0.8-0.5,1.2-0.9V22.8z M58.9,17.3c0.7-0.7,1.5-1.1,2.4-1.5c0.9-0.3,1.8-0.5,2.9-0.5c0.7,0,1.4,0.1,2,0.4
		c0.6,0.2,1.1,0.6,1.5,1c0.4,0.4,0.7,0.9,0.9,1.5c0.2,0.6,0.3,1.2,0.3,1.9V28h-1.5c-0.3,0-0.6,0-0.7-0.1c-0.2-0.1-0.3-0.3-0.4-0.6
		L66,26.5c-0.3,0.3-0.6,0.5-0.9,0.7c-0.3,0.2-0.6,0.4-0.9,0.5c-0.3,0.1-0.6,0.2-1,0.3c-0.4,0.1-0.7,0.1-1.2,0.1
		c-0.5,0-1-0.1-1.5-0.2c-0.4-0.1-0.8-0.4-1.2-0.6c-0.3-0.3-0.6-0.6-0.7-1.1s-0.3-0.9-0.3-1.5c0-0.5,0.1-0.9,0.3-1.4
		c0.2-0.5,0.6-0.9,1.2-1.2c0.6-0.4,1.3-0.7,2.3-0.9c0.9-0.2,2.1-0.4,3.5-0.4v-0.6c0-0.8-0.2-1.3-0.5-1.7c-0.3-0.4-0.8-0.6-1.4-0.6
		c-0.5,0-0.8,0.1-1.1,0.2c-0.3,0.1-0.6,0.2-0.8,0.3c-0.2,0.1-0.4,0.2-0.6,0.3c-0.2,0.1-0.4,0.2-0.7,0.2c-0.2,0-0.4-0.1-0.6-0.2
		c-0.2-0.1-0.3-0.3-0.4-0.4L58.9,17.3z M87.6,18.4c-0.1,0.1-0.2,0.2-0.3,0.3c-0.1,0.1-0.2,0.1-0.4,0.1c-0.2,0-0.3,0-0.5-0.1
		c-0.1-0.1-0.3-0.2-0.5-0.3c-0.2-0.1-0.4-0.2-0.7-0.3c-0.3-0.1-0.6-0.1-1-0.1c-0.5,0-0.9,0.1-1.3,0.3c-0.4,0.2-0.7,0.4-0.9,0.8
		s-0.4,0.7-0.5,1.2c-0.1,0.5-0.2,1-0.2,1.6c0,1.3,0.3,2.2,0.8,2.9c0.5,0.7,1.2,1,2.1,1c0.3,0,0.6,0,0.8-0.1c0.2-0.1,0.4-0.1,0.6-0.2
		c0.2-0.1,0.3-0.2,0.4-0.3c0.1-0.1,0.2-0.2,0.3-0.3c0.1-0.1,0.2-0.1,0.3-0.2c0.1-0.1,0.2-0.1,0.4-0.1c0.3,0,0.5,0.1,0.6,0.3l0.9,1.2
		c-0.4,0.4-0.7,0.7-1.1,1c-0.4,0.3-0.8,0.5-1.2,0.6c-0.4,0.2-0.9,0.3-1.3,0.3c-0.4,0.1-0.9,0.1-1.3,0.1c-0.8,0-1.5-0.1-2.2-0.4
		c-0.7-0.3-1.3-0.7-1.8-1.2c-0.5-0.5-0.9-1.2-1.2-2c-0.3-0.8-0.4-1.7-0.4-2.7c0-0.9,0.1-1.7,0.4-2.5c0.3-0.8,0.7-1.4,1.2-2
		c0.5-0.6,1.1-1,1.9-1.3c0.8-0.3,1.6-0.5,2.6-0.5c0.9,0,1.8,0.2,2.5,0.5c0.7,0.3,1.4,0.7,1.9,1.3L87.6,18.4z M100.8,16.8
		c0.2-0.2,0.5-0.4,0.7-0.6c0.3-0.2,0.5-0.3,0.8-0.4c0.3-0.1,0.6-0.2,0.9-0.3c0.3-0.1,0.7-0.1,1.1-0.1c0.7,0,1.3,0.1,1.8,0.3
		s1,0.6,1.3,1c0.4,0.4,0.6,0.9,0.8,1.5c0.2,0.6,0.3,1.2,0.3,1.9V28h-3.3v-7.9c0-0.7-0.2-1.2-0.5-1.6c-0.3-0.4-0.8-0.6-1.4-0.6
		c-0.5,0-0.9,0.1-1.3,0.3c-0.4,0.2-0.8,0.5-1.2,0.8V28h-3.3V10.1h3.3V16.8z"/>
	<path class="st2" d="M137.1,18.8c0.6,0,1.1-0.1,1.5-0.2c0.4-0.2,0.8-0.4,1-0.6c0.3-0.3,0.5-0.6,0.6-0.9s0.2-0.7,0.2-1.2
		c0-0.8-0.3-1.5-0.8-1.9c-0.5-0.5-1.4-0.7-2.5-0.7h-1.9v5.5H137.1z M145.5,28h-3.3c-0.6,0-1-0.2-1.3-0.7l-3.3-5.3
		c-0.1-0.2-0.3-0.4-0.5-0.5c-0.2-0.1-0.4-0.1-0.7-0.1h-1.2V28h-3.6V10.6h5.5c1.2,0,2.3,0.1,3.1,0.4c0.9,0.2,1.6,0.6,2.1,1
		s1,1,1.2,1.6c0.3,0.6,0.4,1.3,0.4,2c0,0.6-0.1,1.1-0.3,1.6c-0.2,0.5-0.4,1-0.7,1.4s-0.7,0.8-1.2,1.1c-0.5,0.3-1,0.6-1.6,0.8
		c0.2,0.1,0.4,0.3,0.6,0.5c0.2,0.2,0.4,0.4,0.5,0.6L145.5,28z M161,20.4c0-0.3,0-0.7-0.1-1c-0.1-0.3-0.2-0.6-0.4-0.8
		s-0.5-0.4-0.8-0.6c-0.3-0.1-0.7-0.2-1.1-0.2c-0.8,0-1.4,0.2-1.9,0.7c-0.4,0.4-0.7,1.1-0.9,1.9H161z M155.8,22.3
		c0.1,1.2,0.4,2,1,2.5c0.6,0.5,1.3,0.8,2.2,0.8c0.5,0,0.8-0.1,1.2-0.2c0.3-0.1,0.6-0.2,0.9-0.4c0.3-0.1,0.5-0.3,0.7-0.4
		c0.2-0.1,0.4-0.2,0.6-0.2c0.3,0,0.5,0.1,0.6,0.3l1,1.2c-0.4,0.4-0.7,0.7-1.2,1c-0.4,0.3-0.9,0.5-1.3,0.6c-0.5,0.2-0.9,0.3-1.4,0.3
		c-0.5,0.1-0.9,0.1-1.3,0.1c-0.9,0-1.7-0.1-2.4-0.4c-0.7-0.3-1.4-0.7-2-1.3c-0.6-0.6-1-1.3-1.3-2.1c-0.3-0.8-0.5-1.8-0.5-2.9
		c0-0.8,0.1-1.6,0.4-2.4c0.3-0.7,0.7-1.4,1.2-1.9c0.5-0.6,1.2-1,1.9-1.3c0.7-0.3,1.6-0.5,2.5-0.5c0.8,0,1.5,0.1,2.2,0.4
		c0.7,0.2,1.2,0.6,1.7,1.1c0.5,0.5,0.9,1.1,1.1,1.8c0.3,0.7,0.4,1.5,0.4,2.4c0,0.2,0,0.5,0,0.6s-0.1,0.3-0.1,0.4
		c-0.1,0.1-0.1,0.2-0.2,0.2c-0.1,0-0.2,0-0.4,0H155.8z M180.9,18.2c-0.1,0.1-0.2,0.2-0.3,0.3c-0.1,0.1-0.2,0.1-0.4,0.1
		c-0.2,0-0.3,0-0.5-0.1s-0.4-0.2-0.6-0.3c-0.2-0.1-0.4-0.2-0.7-0.3c-0.3-0.1-0.6-0.1-0.9-0.1c-0.5,0-1,0.1-1.2,0.3
		c-0.3,0.2-0.4,0.5-0.4,0.9c0,0.2,0.1,0.5,0.3,0.6c0.2,0.2,0.4,0.3,0.7,0.4c0.3,0.1,0.6,0.2,0.9,0.3c0.4,0.1,0.7,0.2,1.1,0.3
		c0.4,0.1,0.7,0.3,1.1,0.4c0.4,0.2,0.7,0.4,0.9,0.6c0.3,0.2,0.5,0.6,0.7,0.9c0.2,0.4,0.3,0.8,0.3,1.3c0,0.6-0.1,1.2-0.3,1.7
		c-0.2,0.5-0.5,0.9-1,1.3s-1,0.7-1.6,0.9c-0.6,0.2-1.4,0.3-2.2,0.3c-0.4,0-0.8,0-1.3-0.1c-0.4-0.1-0.8-0.2-1.2-0.3
		c-0.4-0.1-0.7-0.3-1.1-0.5s-0.6-0.4-0.9-0.6l0.8-1.2c0.1-0.1,0.2-0.3,0.3-0.3c0.1-0.1,0.3-0.1,0.5-0.1c0.2,0,0.4,0.1,0.6,0.2
		c0.2,0.1,0.4,0.2,0.6,0.3c0.2,0.1,0.5,0.2,0.7,0.3c0.3,0.1,0.6,0.1,1.1,0.1c0.3,0,0.6,0,0.8-0.1c0.2-0.1,0.4-0.2,0.6-0.3
		c0.1-0.1,0.2-0.3,0.3-0.4c0.1-0.2,0.1-0.3,0.1-0.5c0-0.3-0.1-0.5-0.3-0.7c-0.2-0.2-0.4-0.3-0.7-0.5c-0.3-0.1-0.6-0.2-0.9-0.3
		s-0.7-0.2-1.1-0.3c-0.4-0.1-0.7-0.3-1.1-0.5c-0.4-0.2-0.7-0.4-0.9-0.7c-0.3-0.3-0.5-0.6-0.7-1c-0.2-0.4-0.3-0.9-0.3-1.4
		c0-0.5,0.1-1,0.3-1.5c0.2-0.5,0.5-0.9,0.9-1.2c0.4-0.4,0.9-0.6,1.5-0.8c0.6-0.2,1.3-0.3,2.1-0.3c0.9,0,1.7,0.1,2.4,0.4
		s1.3,0.7,1.8,1.1L180.9,18.2z M196.6,15.4c0.9,0,1.8,0.1,2.5,0.4c0.8,0.3,1.4,0.7,2,1.3c0.5,0.5,1,1.2,1.3,2
		c0.3,0.8,0.4,1.7,0.4,2.7c0,1-0.1,1.9-0.4,2.7c-0.3,0.8-0.7,1.5-1.3,2s-1.2,1-2,1.3c-0.8,0.3-1.6,0.4-2.5,0.4
		c-0.9,0-1.8-0.1-2.6-0.4c-0.8-0.3-1.4-0.7-2-1.3s-1-1.2-1.3-2c-0.3-0.8-0.4-1.7-0.4-2.7c0-1,0.1-1.9,0.4-2.7c0.3-0.8,0.7-1.4,1.3-2
		c0.5-0.6,1.2-1,2-1.3C194.8,15.6,195.7,15.4,196.6,15.4z M196.6,25.7c0.9,0,1.6-0.3,2.1-1c0.5-0.7,0.7-1.6,0.7-2.9
		c0-1.3-0.2-2.2-0.7-2.9c-0.5-0.7-1.2-1-2.1-1c-1,0-1.7,0.3-2.1,1c-0.5,0.6-0.7,1.6-0.7,2.9c0,1.3,0.2,2.3,0.7,2.9
		C194.9,25.4,195.6,25.7,196.6,25.7z M215.2,17.7c0.4-0.7,0.8-1.3,1.4-1.7c0.5-0.4,1.1-0.6,1.8-0.6c0.6,0,1,0.1,1.4,0.4l-0.2,2.4
		c0,0.2-0.1,0.3-0.2,0.3c-0.1,0.1-0.2,0.1-0.3,0.1c-0.1,0-0.3,0-0.6,0c-0.2,0-0.5-0.1-0.7-0.1c-0.3,0-0.6,0-0.8,0.1
		c-0.2,0.1-0.4,0.2-0.6,0.4c-0.2,0.2-0.4,0.4-0.5,0.6c-0.1,0.2-0.3,0.5-0.4,0.8V28h-3.3V15.6h2c0.3,0,0.6,0.1,0.7,0.2
		c0.1,0.1,0.2,0.3,0.3,0.6L215.2,17.7z M232.6,28.2c-0.6,0-1.1-0.1-1.5-0.2c-0.4-0.2-0.8-0.4-1.1-0.7c-0.3-0.3-0.5-0.7-0.7-1.1
		c-0.2-0.4-0.2-0.9-0.2-1.5V18H228c-0.2,0-0.3-0.1-0.5-0.2c-0.1-0.1-0.2-0.3-0.2-0.5V16l2-0.4l0.7-3.2c0.1-0.4,0.3-0.5,0.7-0.5h1.7
		v3.8h3.2V18h-3.2v6.5c0,0.3,0.1,0.6,0.2,0.8c0.2,0.2,0.4,0.3,0.7,0.3c0.2,0,0.3,0,0.4,0c0.1,0,0.2-0.1,0.3-0.1
		c0.1,0,0.2-0.1,0.2-0.1c0.1,0,0.1-0.1,0.2-0.1c0.1,0,0.2,0,0.2,0.1c0.1,0,0.1,0.1,0.2,0.2l1,1.6c-0.5,0.4-1,0.6-1.5,0.8
		C233.8,28.1,233.2,28.2,232.6,28.2z"/>
</g>
</svg>
